<?xml version="1.0" standalone="no"?>
<!DOCTYPE svg PUBLIC "-//W3C//DTD SVG 20010904//EN"
 "http://www.w3.org/TR/2001/REC-SVG-20010904/DTD/svg10.dtd">
<svg version="1.0" xmlns="http://www.w3.org/2000/svg"
 width="113.000000pt" height="113.000000pt" viewBox="0 0 113.000000 113.000000"
 preserveAspectRatio="xMidYMid meet">
<metadata>
Created by potrace 1.14, written by Peter Selinger 2001-2017
</metadata>
<g transform="translate(0.000000,113.000000) scale(0.100000,-0.100000)"
fill="#000000" stroke="none">
<path d="M473 1114 c-183 -32 -297 -121 -328 -258 -16 -69 -9 -141 18 -196 12
-25 21 -48 19 -52 -1 -4 5 -5 13 -2 9 4 15 0 15 -9 0 -9 5 -19 12 -23 7 -5 8
-3 3 6 -5 7 3 5 17 -6 14 -10 23 -23 20 -28 -3 -5 0 -6 6 -3 13 9 44 -2 37
-13 -2 -4 3 -7 13 -7 30 1 92 -15 87 -23 -2 -4 7 -5 20 -2 14 2 25 0 25 -5 0
-5 11 -10 25 -11 45 -3 55 -5 55 -12 0 -3 10 -6 23 -7 51 -1 58 -3 51 -15 -5
-9 -2 -9 9 1 11 9 17 10 17 2 0 -6 3 -10 8 -9 18 5 54 -16 61 -35 45 -120
-246 -114 -422 10 -26 18 -50 33 -55 33 -4 -1 -36 -46 -71 -102 -55 -87 -61
-102 -47 -110 9 -5 13 -15 10 -21 -4 -7 -4 -9 1 -5 4 4 20 0 34 -10 14 -10 38
-24 53 -31 15 -8 26 -17 24 -20 -2 -3 7 -7 20 -7 13 -1 32 -5 42 -9 9 -5 26
-10 37 -12 10 -2 22 -7 25 -11 3 -4 14 -8 25 -9 11 0 38 -4 60 -8 64 -11 259
-13 272 -2 7 5 19 7 28 4 8 -4 17 -2 20 3 3 4 16 7 30 5 14 -1 23 0 20 3 -9 9
66 42 78 35 6 -4 7 -1 2 7 -6 10 -4 12 9 7 9 -4 15 -3 12 2 -8 12 19 33 29 23
5 -4 5 -2 2 4 -8 14 17 37 28 26 5 -4 5 -2 2 4 -3 6 2 20 11 30 17 18 20 23
27 49 2 6 8 24 13 40 31 97 -1 221 -73 284 -55 48 -118 73 -290 115 -82 20
-160 43 -171 51 -19 12 -22 27 -15 67 4 22 61 36 142 33 89 -3 146 -21 141
-44 -1 -7 2 -10 8 -6 6 3 8 10 5 15 -3 5 8 2 25 -6 17 -9 27 -20 24 -26 -4 -7
-2 -8 5 -4 10 7 68 -26 82 -47 3 -5 19 12 35 37 16 25 33 46 37 46 5 0 6 4 2
9 -3 5 -1 13 5 16 19 12 60 84 55 97 -9 23 -122 89 -195 114 -115 39 -246 49
-367 28z"/>
<path d="M710 850 c0 -5 5 -10 11 -10 5 0 7 5 4 10 -3 6 -8 10 -11 10 -2 0 -4
-4 -4 -10z"/>
<path d="M445 70 c-3 -6 1 -7 9 -4 18 7 21 14 7 14 -6 0 -13 -4 -16 -10z"/>
</g>
</svg>
